<mxfile host="app.diagrams.net" modified="2024-02-05T05:59:11.811Z" agent="Mozilla/5.0 (Windows NT 10.0; Win64; x64) AppleWebKit/537.36 (KHTML, like Gecko) Chrome/117.0.0.0 Safari/537.36 Edg/117.0.2045.36" etag="sRh4aurhlsk9sjBzd3Xu" version="23.1.1" type="github">
  <diagram id="C5RBs43oDa-KdzZeNtuy" name="Page-1">
    <mxGraphModel dx="1759" dy="759" grid="1" gridSize="10" guides="1" tooltips="1" connect="1" arrows="1" fold="1" page="1" pageScale="1" pageWidth="827" pageHeight="1169" math="0" shadow="0">
      <root>
        <object label="" id="WIyWlLk6GJQsqaUBKTNV-0">
          <mxCell />
        </object>
        <mxCell id="WIyWlLk6GJQsqaUBKTNV-1" parent="WIyWlLk6GJQsqaUBKTNV-0" />
        <mxCell id="AnEPI34ZdcEERc3whkqk-2" value="&lt;font style=&quot;font-size: 14px;&quot;&gt;Review Form&lt;br&gt;LOAN-065, 065I, 066A, 066B&lt;/font&gt;" style="ellipse;whiteSpace=wrap;html=1;" vertex="1" parent="WIyWlLk6GJQsqaUBKTNV-1">
          <mxGeometry x="300" y="110" width="140" height="90" as="geometry" />
        </mxCell>
        <mxCell id="AnEPI34ZdcEERc3whkqk-9" value="Marketing Depts" style="shape=umlActor;verticalLabelPosition=bottom;verticalAlign=top;html=1;outlineConnect=0;" vertex="1" parent="WIyWlLk6GJQsqaUBKTNV-1">
          <mxGeometry x="100" y="240" width="30" height="60" as="geometry" />
        </mxCell>
        <mxCell id="AnEPI34ZdcEERc3whkqk-10" value="" style="endArrow=classic;html=1;rounded=0;" edge="1" parent="WIyWlLk6GJQsqaUBKTNV-1" target="AnEPI34ZdcEERc3whkqk-2">
          <mxGeometry relative="1" as="geometry">
            <mxPoint x="130" y="260" as="sourcePoint" />
            <mxPoint x="230" y="260" as="targetPoint" />
          </mxGeometry>
        </mxCell>
        <mxCell id="AnEPI34ZdcEERc3whkqk-11" value="Label" style="edgeLabel;resizable=0;html=1;align=center;verticalAlign=middle;" connectable="0" vertex="1" parent="AnEPI34ZdcEERc3whkqk-10">
          <mxGeometry relative="1" as="geometry" />
        </mxCell>
        <mxCell id="AnEPI34ZdcEERc3whkqk-14" value="Create" style="edgeLabel;html=1;align=center;verticalAlign=middle;resizable=0;points=[];fontSize=14;" vertex="1" connectable="0" parent="AnEPI34ZdcEERc3whkqk-10">
          <mxGeometry relative="1" as="geometry">
            <mxPoint as="offset" />
          </mxGeometry>
        </mxCell>
        <mxCell id="AnEPI34ZdcEERc3whkqk-12" value="&lt;font style=&quot;font-size: 18px;&quot;&gt;STS&lt;/font&gt;" style="ellipse;whiteSpace=wrap;html=1;" vertex="1" parent="WIyWlLk6GJQsqaUBKTNV-1">
          <mxGeometry x="300" y="340" width="140" height="80" as="geometry" />
        </mxCell>
        <mxCell id="AnEPI34ZdcEERc3whkqk-15" value="Read" style="endArrow=classic;html=1;rounded=0;entryX=0;entryY=0.338;entryDx=0;entryDy=0;entryPerimeter=0;" edge="1" parent="WIyWlLk6GJQsqaUBKTNV-1" target="AnEPI34ZdcEERc3whkqk-12">
          <mxGeometry relative="1" as="geometry">
            <mxPoint x="130" y="280" as="sourcePoint" />
            <mxPoint x="230" y="280" as="targetPoint" />
          </mxGeometry>
        </mxCell>
        <mxCell id="AnEPI34ZdcEERc3whkqk-16" value="Read" style="edgeLabel;resizable=0;html=1;align=center;verticalAlign=middle;fontSize=14;" connectable="0" vertex="1" parent="AnEPI34ZdcEERc3whkqk-15">
          <mxGeometry relative="1" as="geometry" />
        </mxCell>
        <mxCell id="AnEPI34ZdcEERc3whkqk-17" value="MGT" style="shape=umlActor;verticalLabelPosition=bottom;verticalAlign=top;html=1;outlineConnect=0;" vertex="1" parent="WIyWlLk6GJQsqaUBKTNV-1">
          <mxGeometry x="610" y="240" width="30" height="60" as="geometry" />
        </mxCell>
        <mxCell id="AnEPI34ZdcEERc3whkqk-21" value="" style="endArrow=classic;html=1;rounded=0;entryX=0.943;entryY=0.3;entryDx=0;entryDy=0;entryPerimeter=0;" edge="1" parent="WIyWlLk6GJQsqaUBKTNV-1" source="AnEPI34ZdcEERc3whkqk-17" target="AnEPI34ZdcEERc3whkqk-12">
          <mxGeometry relative="1" as="geometry">
            <mxPoint x="520" y="280" as="sourcePoint" />
            <mxPoint x="490" y="390" as="targetPoint" />
          </mxGeometry>
        </mxCell>
        <mxCell id="AnEPI34ZdcEERc3whkqk-22" value="Label" style="edgeLabel;resizable=0;html=1;align=center;verticalAlign=middle;" connectable="0" vertex="1" parent="AnEPI34ZdcEERc3whkqk-21">
          <mxGeometry relative="1" as="geometry" />
        </mxCell>
        <mxCell id="AnEPI34ZdcEERc3whkqk-23" value="Re" style="edgeLabel;html=1;align=center;verticalAlign=middle;resizable=0;points=[];" vertex="1" connectable="0" parent="AnEPI34ZdcEERc3whkqk-21">
          <mxGeometry x="-0.0321" y="4" relative="1" as="geometry">
            <mxPoint x="1" as="offset" />
          </mxGeometry>
        </mxCell>
        <mxCell id="AnEPI34ZdcEERc3whkqk-24" value="&lt;font style=&quot;font-size: 14px;&quot;&gt;Approve&amp;nbsp;periodically&lt;/font&gt;" style="edgeLabel;html=1;align=center;verticalAlign=middle;resizable=0;points=[];" vertex="1" connectable="0" parent="AnEPI34ZdcEERc3whkqk-21">
          <mxGeometry x="-0.023" relative="1" as="geometry">
            <mxPoint as="offset" />
          </mxGeometry>
        </mxCell>
      </root>
    </mxGraphModel>
  </diagram>
</mxfile>
